<svg xmlns="http://www.w3.org/2000/svg" viewBox="0 0 512 512">
  <rect width="512" height="512" fill="#16243d"/>
  <circle cx="256" cy="256" r="148" fill="none" stroke="#f4d9a8" stroke-width="10" opacity="0.55"/>
  <circle cx="256" cy="256" r="118" fill="#e3992f"/>
  <path d="M226 196c0-19 17-34 38-34 16 0 29 6 38 16l-17 18c-6-7-13-11-21-11-9 0-16 5-16 12 0 8 8 11 24 16 22 7 36 16 36 36 0 21-18 37-41 37-18 0-33-7-43-19l18-17c7 9 15 14 25 14 10 0 18-5 18-13 0-9-9-13-25-18-21-7-34-16-34-37z" fill="#16243d"/>
</svg>
